osim_states
version=1
nRows=4
nColumns=185
inDegrees=yes

# SIMM Motion File Header:
name osim_states
datacolumns 185
datarows 4
otherdata 1
range 0.09426032 0.09485287
endheader
time	platform_rx	platform_ry	platform_rz	platform_ty	pelvis_tilt	pelvis_list	pelvis_rotation	pelvis_tx	pelvis_ty	pelvis_tz	hip_flexion_r	hip_adduction_r	hip_rotation_r	knee_angle_r	patella_r_constrained_knee_angle	ankle_angle_r	subtalar_angle_r	mtp_angle_r	hip_flexion_l	hip_adduction_l	hip_rotation_l	knee_angle_l	patella_l_constrained_knee_angle	ankle_angle_l	subtalar_angle_l	mtp_angle_l	lumbar_extension	lumbar_bending	lumbar_rotation	arm_flex_r	arm_add_r	arm_rot_r	elbow_flex_r	pro_sup_r	wrist_flex_r	wrist_dev_r	arm_flex_l	arm_add_l	arm_rot_l	elbow_flex_l	pro_sup_l	wrist_flex_l	wrist_dev_l	platform_rx_u	platform_ry_u	platform_rz_u	platform_ty_u	pelvis_tilt_u	pelvis_list_u	pelvis_rotation_u	pelvis_tx_u	pelvis_ty_u	pelvis_tz_u	hip_flexion_r_u	hip_adduction_r_u	hip_rotation_r_u	knee_angle_r_u	patella_r_constrained_knee_angle_u	ankle_angle_r_u	subtalar_angle_r_u	mtp_angle_r_u	hip_flexion_l_u	hip_adduction_l_u	hip_rotation_l_u	knee_angle_l_u	patella_l_constrained_knee_angle_u	ankle_angle_l_u	subtalar_angle_l_u	mtp_angle_l_u	lumbar_extension_u	lumbar_bending_u	lumbar_rotation_u	arm_flex_r_u	arm_add_r_u	arm_rot_r_u	elbow_flex_r_u	pro_sup_r_u	wrist_flex_r_u	wrist_dev_r_u	arm_flex_l_u	arm_add_l_u	arm_rot_l_u	elbow_flex_l_u	pro_sup_l_u	wrist_flex_l_u	wrist_dev_l_u	glut_med1_r.activation	glut_med1_r.fiber_length	glut_med2_r.activation	glut_med2_r.fiber_length	glut_med3_r.activation	glut_med3_r.fiber_length	glut_min1_r.activation	glut_min1_r.fiber_length	glut_min2_r.activation	glut_min2_r.fiber_length	glut_min3_r.activation	glut_min3_r.fiber_length	semimem_r.activation	semimem_r.fiber_length	semiten_r.activation	semiten_r.fiber_length	bifemlh_r.activation	bifemlh_r.fiber_length	bifemsh_r.activation	bifemsh_r.fiber_length	sar_r.activation	sar_r.fiber_length	add_long_r.activation	add_long_r.fiber_length	add_brev_r.activation	add_brev_r.fiber_length	add_mag1_r.activation	add_mag1_r.fiber_length	add_mag2_r.activation	add_mag2_r.fiber_length	add_mag3_r.activation	add_mag3_r.fiber_length	tfl_r.activation	tfl_r.fiber_length	pect_r.activation	pect_r.fiber_length	grac_r.activation	grac_r.fiber_length	glut_max1_r.activation	glut_max1_r.fiber_length	glut_max2_r.activation	glut_max2_r.fiber_length	glut_max3_r.activation	glut_max3_r.fiber_length	iliacus_r.activation	iliacus_r.fiber_length	psoas_r.activation	psoas_r.fiber_length	quad_fem_r.activation	quad_fem_r.fiber_length	gem_r.activation	gem_r.fiber_length	peri_r.activation	peri_r.fiber_length	rect_fem_r.activation	rect_fem_r.fiber_length	vas_med_r.activation	vas_med_r.fiber_length	vas_int_r.activation	vas_int_r.fiber_length	vas_lat_r.activation	vas_lat_r.fiber_length	med_gas_r.activation	med_gas_r.fiber_length	lat_gas_r.activation	lat_gas_r.fiber_length	soleus_r.activation	soleus_r.fiber_length	tib_post_r.activation	tib_post_r.fiber_length	flex_dig_r.activation	flex_dig_r.fiber_length	flex_hal_r.activation	flex_hal_r.fiber_length	tib_ant_r.activation	tib_ant_r.fiber_length	per_brev_r.activation	per_brev_r.fiber_length	per_long_r.activation	per_long_r.fiber_length	per_tert_r.activation	per_tert_r.fiber_length	ext_dig_r.activation	ext_dig_r.fiber_length	ext_hal_r.activation	ext_hal_r.fiber_length	ercspn_r.activation	ercspn_r.fiber_length	ercspn_l.activation	ercspn_l.fiber_length	intobl_r.activation	intobl_r.fiber_length	intobl_l.activation	intobl_l.fiber_length	extobl_r.activation	extobl_r.fiber_length	extobl_l.activation	extobl_l.fiber_length
      0.09426032	     30.00000000	      0.00000000	      0.00000000	     -0.00000000	    -12.88802747	      1.13809669	      2.07221043	     -0.42966922	      0.89206469	      0.36764084	     49.13823941	     -6.65314164	    -14.74345728	    -54.96254923	    -54.96254923	     17.40462416	     47.73543484	      0.00001318	     52.13915936	      0.00000000	     -9.99811353	   -101.98648811	   -101.98648811	      6.49999992	      0.00000000	     -0.00000000	    -19.31060617	     -2.77524486	      4.15233330	      0.00000000	     -8.91003344	      0.00000000	     72.06682857	     46.23690339	     -0.00000000	      4.87402477	     -0.00000000	     -8.91003344	     -0.00000000	     72.06682857	     46.23690339	     -0.00000000	      4.87402477	     -0.00000000	      0.00000000	      0.00000000	     -0.00000000	     39.48255520	    -99.47337771	   -268.09314560	     -0.19973341	     -1.48360603	      0.54095357	    176.23943219	    167.01064734	    -30.62675491	   -335.06618371	   -335.06618371	     30.88216729	    194.18233752	     -0.00000000	     -0.00000000	      0.00000000	     -0.00000000	      0.00000000	      0.00000000	      0.00000000	      0.00000000	     -0.00000000	   -198.28727015	     28.16551437	    273.15381837	      0.00000000	     -0.00000000	      0.00000000	      0.00000000	     -0.00000000	     -0.00000000	      0.00000000	     -0.00000000	     -0.00000000	     -0.00000000	      0.00000000	      0.00000000	     -0.00000000	      0.00000000	      0.22015648	      0.05889606	      0.20532420	      0.09776935	      0.28792913	      0.07806114	      0.14065292	      0.07719210	      0.18695237	      0.06643954	      0.30482093	      0.04457815	      0.15372206	      0.07068874	      0.45978158	      0.23705240	      0.32375729	      0.11640234	      0.19177665	      0.15727069	      0.02103880	      0.43309100	      0.02098543	      0.10232609	      0.02254277	      0.12970863	      0.09095784	      0.08116519	      0.11707554	      0.11421181	      0.16782796	      0.14952851	      0.03247944	      0.08521353	      0.02098543	      0.06213965	      0.02098543	      0.33926469	      0.15393121	      0.10872875	      0.15661387	      0.12273858	      0.18452322	      0.15249732	      0.02098543	      0.07548181	      0.02098543	      0.06965584	      0.15077686	      0.04960374	      0.17126113	      0.01842143	      0.41031741	      0.02353951	      0.23143645	      0.11024792	      0.36054185	      0.09386595	      0.41809279	      0.09585706	      0.37542262	      0.08945492	      0.40174990	      0.05516700	      0.39505505	      0.05807781	      0.62168076	      0.05569425	      0.01000000	      0.03103599	      0.01000000	      0.02779992	      0.01000000	      0.03710437	      0.15050615	      0.07061510	      0.01000000	      0.07488551	      0.01000000	      0.07277220	      0.01000000	      0.09132935	      0.01000000	      0.09958844	      0.01000000	      0.09811453	      0.15216419	      0.13457947	      0.24061702	      0.13252845	      0.02098543	      0.08996715	      0.03537978	      0.07491881	      0.08586690	      0.11289408	      0.05784021	      0.10981465
      0.09444720	     30.00000000	      0.00000000	      0.00000000	     -0.00000000	    -12.88065276	      1.11950342	      2.02209939	     -0.42970663	      0.89178754	      0.36774201	     49.17117854	     -6.62185373	    -14.74918125	    -55.02518057	    -55.02518057	     17.41039445	     47.77128251	      0.00001318	     52.13915936	      0.00000000	     -9.99811353	   -101.98648811	   -101.98648811	      6.49999992	      0.00000000	     -0.00000000	    -19.34767927	     -2.77002480	      4.20337625	      0.00000000	     -8.91003344	      0.00000000	     72.06682857	     46.23690339	     -0.00000000	      4.87402477	     -0.00000000	     -8.91003344	     -0.00000000	     72.06682857	     46.23690339	     -0.00000000	      4.87402477	     -0.00000000	      0.00000000	      0.00000000	     -0.00000000	     39.43835771	    -99.50398103	   -268.17360619	     -0.20057858	     -1.48236819	      0.54166395	    176.26113411	    167.81912306	    -30.62891706	   -335.18763415	   -335.18763415	     30.86875889	    189.44710141	     -0.00000000	     -0.00000000	      0.00000000	     -0.00000000	      0.00000000	      0.00000000	      0.00000000	      0.00000000	     -0.00000000	   -198.45295869	     27.69739746	    273.08571191	      0.00000000	     -0.00000000	      0.00000000	      0.00000000	     -0.00000000	     -0.00000000	      0.00000000	     -0.00000000	     -0.00000000	     -0.00000000	      0.00000000	      0.00000000	     -0.00000000	      0.00000000	      0.21998160	      0.05891411	      0.20523835	      0.09779911	      0.28821500	      0.07809528	      0.14049770	      0.07720464	      0.18688782	      0.06645824	      0.30512735	      0.04460221	      0.15351832	      0.07067353	      0.45967930	      0.23702576	      0.32369784	      0.11639652	      0.19155876	      0.15723642	      0.02101142	      0.43304656	      0.02095819	      0.10227823	      0.02251153	      0.12967855	      0.09071754	      0.08115267	      0.11673821	      0.11421338	      0.16750393	      0.14954924	      0.03242189	      0.08520653	      0.02095819	      0.06210737	      0.02095819	      0.33921118	      0.15381861	      0.10876222	      0.15647727	      0.12277250	      0.18415537	      0.15252093	      0.02095819	      0.07545327	      0.02095819	      0.06962525	      0.15046084	      0.04960982	      0.17190765	      0.01843083	      0.41105500	      0.02356225	      0.23165234	      0.11026890	      0.36095917	      0.09390438	      0.41853500	      0.09589708	      0.37585338	      0.08949308	      0.40171634	      0.05516265	      0.39497862	      0.05806989	      0.62198801	      0.05570284	      0.01000000	      0.03103067	      0.01000000	      0.02778250	      0.01000000	      0.03709671	      0.15019042	      0.07054371	      0.01000000	      0.07489140	      0.01000000	      0.07278366	      0.01000000	      0.09133787	      0.01000000	      0.09959429	      0.01000000	      0.09810960	      0.15247671	      0.13458850	      0.24090228	      0.13256491	      0.02095819	      0.08996075	      0.03531429	      0.07486658	      0.08564440	      0.11282313	      0.05772799	      0.10981884
      0.09463409	     30.00000000	      0.00000000	      0.00000000	     -0.00000000	    -12.87328639	      1.10090441	      1.97197352	     -0.42974420	      0.89151061	      0.36784330	     49.20412173	     -6.59041483	    -14.75490573	    -55.08783456	    -55.08783456	     17.41616265	     47.80624299	      0.00001318	     52.13915936	      0.00000000	     -9.99811353	   -101.98648811	   -101.98648811	      6.49999992	      0.00000000	     -0.00000000	    -19.38478314	     -2.76489221	      4.25440620	      0.00000000	     -8.91003344	      0.00000000	     72.06682857	     46.23690339	     -0.00000000	      4.87402477	     -0.00000000	     -8.91003344	     -0.00000000	     72.06682857	     46.23690339	     -0.00000000	      4.87402477	     -0.00000000	      0.00000000	      0.00000000	     -0.00000000	     39.39321841	    -99.53469484	   -268.25173993	     -0.20142218	     -1.48113478	      0.54237229	    176.28284088	    168.62644504	    -30.63201714	   -335.30825931	   -335.30825931	     30.86058646	    184.69247844	     -0.00000000	     -0.00000000	      0.00000000	     -0.00000000	      0.00000000	      0.00000000	      0.00000000	      0.00000000	     -0.00000000	   -198.61656273	     27.22949840	    273.01456787	      0.00000000	     -0.00000000	      0.00000000	      0.00000000	     -0.00000000	     -0.00000000	      0.00000000	     -0.00000000	     -0.00000000	     -0.00000000	      0.00000000	      0.00000000	     -0.00000000	      0.00000000	      0.21980797	      0.05893218	      0.20515381	      0.09782891	      0.28851050	      0.07812946	      0.14034329	      0.07721719	      0.18682453	      0.06647698	      0.30543867	      0.04462632	      0.15331459	      0.07065830	      0.45957674	      0.23699905	      0.32363837	      0.11639066	      0.19134089	      0.15720215	      0.02098411	      0.43300218	      0.02093101	      0.10223017	      0.02248037	      0.12964830	      0.09047808	      0.08113998	      0.11640219	      0.11421487	      0.16718025	      0.14956990	      0.03236449	      0.08519962	      0.02093101	      0.06207498	      0.02093101	      0.33915752	      0.15370682	      0.10879572	      0.15634147	      0.12280644	      0.18378826	      0.15254449	      0.02093101	      0.07542474	      0.02093101	      0.06959461	      0.15014580	      0.04961589	      0.17256398	      0.01844029	      0.41179743	      0.02358505	      0.23186867	      0.11028988	      0.36137738	      0.09394279	      0.41897820	      0.09593710	      0.37628505	      0.08953122	      0.40168247	      0.05515826	      0.39490178	      0.05806193	      0.62229396	      0.05571138	      0.01000000	      0.03102542	      0.01000000	      0.02776508	      0.01000000	      0.03708914	      0.14987459	      0.07047238	      0.01000000	      0.07490371	      0.01000000	      0.07279485	      0.01000000	      0.09134613	      0.01000000	      0.09960002	      0.01000000	      0.09810477	      0.15278999	      0.13459759	      0.24118554	      0.13260133	      0.02093101	      0.08995449	      0.03524898	      0.07481435	      0.08542267	      0.11275223	      0.05761556	      0.10982298
      0.09485287	     30.00000000	      0.00000000	      0.00000000	     -0.00000000	    -12.86467398	      1.07912465	      1.91327670	     -0.42978837	      0.89118673	      0.36796205	     49.24269096	     -6.55342017	    -14.76160776	    -55.16120724	    -55.16120724	     17.42291352	     47.84604219	      0.00001318	     52.13915936	      0.00000000	     -9.99811353	   -101.98648811	   -101.98648811	      6.49999992	      0.00000000	     -0.00000000	    -19.42825642	     -2.75899493	      4.31412581	      0.00000000	     -8.91003344	      0.00000000	     72.06682857	     46.23690339	     -0.00000000	      4.87402477	     -0.00000000	     -8.91003344	     -0.00000000	     72.06682857	     46.23690339	     -0.00000000	      4.87402477	     -0.00000000	      0.00000000	      0.00000000	     -0.00000000	     39.33919229	    -99.57081191	   -268.34021797	     -0.20240768	     -1.47969651	      0.54319865	    176.30806390	    169.56981177	    -30.63671616	   -335.44760222	   -335.44760222	     30.85604140	    179.12994182	     -0.00000000	     -0.00000000	      0.00000000	     -0.00000000	      0.00000000	      0.00000000	      0.00000000	      0.00000000	     -0.00000000	   -198.80544256	     26.68211383	    272.92740210	      0.00000000	     -0.00000000	      0.00000000	      0.00000000	     -0.00000000	     -0.00000000	      0.00000000	     -0.00000000	     -0.00000000	     -0.00000000	      0.00000000	      0.00000000	     -0.00000000	      0.00000000	      0.21960630	      0.05895334	      0.20505647	      0.09786385	      0.28886843	      0.07816954	      0.14016355	      0.07723190	      0.18675204	      0.06649896	      0.30580920	      0.04465459	      0.15307613	      0.07064045	      0.45945632	      0.23696769	      0.32356875	      0.11638377	      0.19108589	      0.15716202	      0.02095223	      0.43295033	      0.02089929	      0.10217366	      0.02244399	      0.12961269	      0.09019883	      0.08112492	      0.11601049	      0.11421651	      0.16680178	      0.14959398	      0.03229750	      0.08519165	      0.02089929	      0.06203690	      0.02089929	      0.33909450	      0.15357698	      0.10883497	      0.15618352	      0.12284620	      0.18335943	      0.15257197	      0.02089929	      0.07539135	      0.02089929	      0.06955867	      0.14977827	      0.04962299	      0.17334457	      0.01845142	      0.41267258	      0.02361180	      0.23212245	      0.11031446	      0.36186805	      0.09398774	      0.41949823	      0.09598392	      0.37679148	      0.08957585	      0.40164244	      0.05515305	      0.39481133	      0.05805256	      0.62265045	      0.05572131	      0.01000000	      0.03101936	      0.01000000	      0.02774469	      0.01000000	      0.03708041	      0.14950475	      0.07038893	      0.01000000	      0.07492841	      0.01000000	      0.07280762	      0.01000000	      0.09135549	      0.01000000	      0.09960660	      0.01000000	      0.09809926	      0.15315766	      0.13460832	      0.24151459	      0.13264391	      0.02089929	      0.08994733	      0.03517275	      0.07475323	      0.08516408	      0.11266927	      0.05748370	      0.10982776
